<svg id="visual" viewBox="0 0 900 600" width="900" height="600" xmlns="http://www.w3.org/2000/svg" xmlns:xlink="http://www.w3.org/1999/xlink" version="1.1"><path d="M0 441L21.5 435.8C43 430.7 86 420.3 128.8 413C171.7 405.7 214.3 401.3 257.2 403C300 404.7 343 412.3 385.8 413.8C428.7 415.3 471.3 410.7 514.2 403.5C557 396.3 600 386.7 642.8 378.2C685.7 369.7 728.3 362.3 771.2 360.2C814 358 857 361 878.5 362.5L900 364L900 601L878.5 601C857 601 814 601 771.2 601C728.3 601 685.7 601 642.8 601C600 601 557 601 514.2 601C471.3 601 428.7 601 385.8 601C343 601 300 601 257.2 601C214.3 601 171.7 601 128.8 601C86 601 43 601 21.5 601L0 601Z" fill="#006191"></path><path d="M0 432L21.5 435.2C43 438.3 86 444.7 128.8 451.2C171.7 457.7 214.3 464.3 257.2 457.7C300 451 343 431 385.8 422.2C428.7 413.3 471.3 415.7 514.2 421C557 426.3 600 434.7 642.8 433.2C685.7 431.7 728.3 420.3 771.2 424.5C814 428.7 857 448.3 878.5 458.2L900 468L900 601L878.5 601C857 601 814 601 771.2 601C728.3 601 685.7 601 642.8 601C600 601 557 601 514.2 601C471.3 601 428.7 601 385.8 601C343 601 300 601 257.2 601C214.3 601 171.7 601 128.8 601C86 601 43 601 21.5 601L0 601Z" fill="#228ccc"></path><path d="M0 447L21.5 456.8C43 466.7 86 486.3 128.8 495.3C171.7 504.3 214.3 502.7 257.2 497C300 491.3 343 481.7 385.8 471.2C428.7 460.7 471.3 449.3 514.2 455C557 460.7 600 483.3 642.8 489.5C685.7 495.7 728.3 485.3 771.2 476.8C814 468.3 857 461.7 878.5 458.3L900 455L900 601L878.5 601C857 601 814 601 771.2 601C728.3 601 685.7 601 642.8 601C600 601 557 601 514.2 601C471.3 601 428.7 601 385.8 601C343 601 300 601 257.2 601C214.3 601 171.7 601 128.8 601C86 601 43 601 21.5 601L0 601Z" fill="#50a4d9"></path><path d="M0 491L21.5 496.5C43 502 86 513 128.8 512C171.7 511 214.3 498 257.2 497.8C300 497.7 343 510.3 385.8 514.5C428.7 518.7 471.3 514.3 514.2 508.3C557 502.3 600 494.7 642.8 495.3C685.7 496 728.3 505 771.2 505.5C814 506 857 498 878.5 494L900 490L900 601L878.5 601C857 601 814 601 771.2 601C728.3 601 685.7 601 642.8 601C600 601 557 601 514.2 601C471.3 601 428.7 601 385.8 601C343 601 300 601 257.2 601C214.3 601 171.7 601 128.8 601C86 601 43 601 21.5 601L0 601Z" fill="#228ccc"></path><path d="M0 533L21.5 535.3C43 537.7 86 542.3 128.8 544.3C171.7 546.3 214.3 545.7 257.2 543.2C300 540.7 343 536.3 385.8 539C428.7 541.7 471.3 551.3 514.2 556.3C557 561.3 600 561.7 642.8 556.7C685.7 551.7 728.3 541.3 771.2 538.8C814 536.3 857 541.7 878.5 544.3L900 547L900 601L878.5 601C857 601 814 601 771.2 601C728.3 601 685.7 601 642.8 601C600 601 557 601 514.2 601C471.3 601 428.7 601 385.8 601C343 601 300 601 257.2 601C214.3 601 171.7 601 128.8 601C86 601 43 601 21.5 601L0 601Z" fill="#006191"></path></svg>