<?xml version="1.0" standalone="no"?>
<svg xmlns:xlink="http://www.w3.org/1999/xlink" id="wave" style="transform:rotate(0deg); transition: 0.3s" viewBox="0 0 1440 370" version="1.1" xmlns="http://www.w3.org/2000/svg"><defs><linearGradient id="sw-gradient-0" x1="0" x2="0" y1="1" y2="0"><stop stop-color="rgba(2, 132, 199, 1)" offset="0%"/><stop stop-color="rgba(7, 89, 133, 1)" offset="100%"/></linearGradient></defs><path style="transform:translate(0, 0px); opacity:1" fill="url(#sw-gradient-0)" d="M0,111L48,141.8C96,173,192,234,288,222C384,210,480,123,576,104.8C672,86,768,136,864,172.7C960,210,1056,234,1152,215.8C1248,197,1344,136,1440,123.3C1536,111,1632,148,1728,160.3C1824,173,1920,160,2016,185C2112,210,2208,271,2304,271.3C2400,271,2496,210,2592,166.5C2688,123,2784,99,2880,92.5C2976,86,3072,99,3168,86.3C3264,74,3360,37,3456,18.5C3552,0,3648,0,3744,0C3840,0,3936,0,4032,6.2C4128,12,4224,25,4320,43.2C4416,62,4512,86,4608,129.5C4704,173,4800,234,4896,246.7C4992,259,5088,222,5184,209.7C5280,197,5376,210,5472,222C5568,234,5664,247,5760,259C5856,271,5952,284,6048,277.5C6144,271,6240,247,6336,222C6432,197,6528,173,6624,154.2C6720,136,6816,123,6864,117.2L6912,111L6912,370L6864,370C6816,370,6720,370,6624,370C6528,370,6432,370,6336,370C6240,370,6144,370,6048,370C5952,370,5856,370,5760,370C5664,370,5568,370,5472,370C5376,370,5280,370,5184,370C5088,370,4992,370,4896,370C4800,370,4704,370,4608,370C4512,370,4416,370,4320,370C4224,370,4128,370,4032,370C3936,370,3840,370,3744,370C3648,370,3552,370,3456,370C3360,370,3264,370,3168,370C3072,370,2976,370,2880,370C2784,370,2688,370,2592,370C2496,370,2400,370,2304,370C2208,370,2112,370,2016,370C1920,370,1824,370,1728,370C1632,370,1536,370,1440,370C1344,370,1248,370,1152,370C1056,370,960,370,864,370C768,370,672,370,576,370C480,370,384,370,288,370C192,370,96,370,48,370L0,370Z"/></svg>