<svg id="visual" viewBox="0 0 900 600" width="900" height="600" xmlns="http://www.w3.org/2000/svg" xmlns:xlink="http://www.w3.org/1999/xlink" version="1.1"><path d="M876 600L860 585.7C844 571.3 812 542.7 801 514.2C790 485.7 800 457.3 791.8 428.8C783.7 400.3 757.3 371.7 747.8 343C738.3 314.3 745.7 285.7 748.2 257C750.7 228.3 748.3 199.7 753.8 171.2C759.3 142.7 772.7 114.3 796.8 85.8C821 57.3 856 28.7 873.5 14.3L891 0L900 0L900 14.3C900 28.7 900 57.3 900 85.8C900 114.3 900 142.7 900 171.2C900 199.7 900 228.3 900 257C900 285.7 900 314.3 900 343C900 371.7 900 400.3 900 428.8C900 457.3 900 485.7 900 514.2C900 542.7 900 571.3 900 585.7L900 600Z" fill="#0284c7" stroke-linecap="round" stroke-linejoin="miter"></path></svg>