<svg id="visual" viewBox="0 0 900 600" width="900" height="600" xmlns="http://www.w3.org/2000/svg" xmlns:xlink="http://www.w3.org/1999/xlink" version="1.1"><path d="M4 0L14.7 14.3C25.3 28.7 46.7 57.3 74.3 85.8C102 114.3 136 142.7 131 171.2C126 199.7 82 228.3 54.5 257C27 285.7 16 314.3 26 343C36 371.7 67 400.3 93.7 428.8C120.3 457.3 142.7 485.7 130.7 514.2C118.7 542.7 72.3 571.3 49.2 585.7L26 600L0 600L0 585.7C0 571.3 0 542.7 0 514.2C0 485.7 0 457.3 0 428.8C0 400.3 0 371.7 0 343C0 314.3 0 285.7 0 257C0 228.3 0 199.7 0 171.2C0 142.7 0 114.3 0 85.8C0 57.3 0 28.7 0 14.3L0 0Z" fill="#0284c7" stroke-linecap="round" stroke-linejoin="miter"></path></svg>