<?xml version="1.0" standalone="no"?>
<svg xmlns:xlink="http://www.w3.org/1999/xlink" id="wave" style="transform:rotate(180deg); transition: 0.3s" viewBox="0 0 1440 360" version="1.1" xmlns="http://www.w3.org/2000/svg"><defs><linearGradient id="sw-gradient-0" x1="0" x2="0" y1="1" y2="0"><stop stop-color="rgba(2, 132, 199, 1)" offset="0%"/><stop stop-color="rgba(7, 89, 133, 1)" offset="100%"/></linearGradient></defs><path style="transform:translate(0, 0px); opacity:1" fill="url(#sw-gradient-0)" d="M0,185L48,209.7C96,234,192,284,288,277.5C384,271,480,210,576,209.7C672,210,768,271,864,252.8C960,234,1056,136,1152,111C1248,86,1344,136,1440,160.3C1536,185,1632,185,1728,160.3C1824,136,1920,86,2016,86.3C2112,86,2208,136,2304,160.3C2400,185,2496,185,2592,197.3C2688,210,2784,234,2880,252.8C2976,271,3072,284,3168,259C3264,234,3360,173,3456,154.2C3552,136,3648,160,3744,191.2C3840,222,3936,259,4032,234.3C4128,210,4224,123,4320,123.3C4416,123,4512,210,4608,234.3C4704,259,4800,222,4896,185C4992,148,5088,111,5184,111C5280,111,5376,148,5472,166.5C5568,185,5664,185,5760,160.3C5856,136,5952,86,6048,74C6144,62,6240,86,6336,104.8C6432,123,6528,136,6624,129.5C6720,123,6816,99,6864,86.3L6912,74L6912,370L6864,370C6816,370,6720,370,6624,370C6528,370,6432,370,6336,370C6240,370,6144,370,6048,370C5952,370,5856,370,5760,370C5664,370,5568,370,5472,370C5376,370,5280,370,5184,370C5088,370,4992,370,4896,370C4800,370,4704,370,4608,370C4512,370,4416,370,4320,370C4224,370,4128,370,4032,370C3936,370,3840,370,3744,370C3648,370,3552,370,3456,370C3360,370,3264,370,3168,370C3072,370,2976,370,2880,370C2784,370,2688,370,2592,370C2496,370,2400,370,2304,370C2208,370,2112,370,2016,370C1920,370,1824,370,1728,370C1632,370,1536,370,1440,370C1344,370,1248,370,1152,370C1056,370,960,370,864,370C768,370,672,370,576,370C480,370,384,370,288,370C192,370,96,370,48,370L0,370Z"/></svg>