<svg id="visual" viewBox="0 0 900 600" width="900" height="600" xmlns="http://www.w3.org/2000/svg" xmlns:xlink="http://www.w3.org/1999/xlink" version="1.1"><g stroke-width="1" stroke-linejoin="bevel"><path d="M422 333L334.5 415L454 386Z" fill="#0477b4" stroke="#0477b4"></path><path d="M422 333L352.5 265L334.5 415Z" fill="#066ba1" stroke="#066ba1"></path><path d="M334.5 415L465 501L454 386Z" fill="#093049" stroke="#093049"></path><path d="M352.5 265L254 339L334.5 415Z" fill="#00101c" stroke="#00101c"></path><path d="M244 434L341.5 525L334.5 415Z" fill="#0284c7" stroke="#0284c7"></path><path d="M334.5 415L341.5 525L465 501Z" fill="#061b2a" stroke="#061b2a"></path><path d="M465 501L522.5 463L454 386Z" fill="#0477b4" stroke="#0477b4"></path><path d="M454 386L555.5 275L422 333Z" fill="#08253a" stroke="#08253a"></path><path d="M254 339L244 434L334.5 415Z" fill="#0a476b" stroke="#0a476b"></path><path d="M419 173L355.5 196L352.5 265Z" fill="#0a476b" stroke="#0a476b"></path><path d="M352.5 265L264 167L254 339Z" fill="#093049" stroke="#093049"></path><path d="M419 173L352.5 265L422 333Z" fill="#08253a" stroke="#08253a"></path><path d="M592.5 402L555.5 275L454 386Z" fill="#00101c" stroke="#00101c"></path><path d="M522.5 463L592.5 402L454 386Z" fill="#0a3b5a" stroke="#0a3b5a"></path><path d="M341.5 525L418 600L465 501Z" fill="#066ba1" stroke="#066ba1"></path><path d="M465 501L537.5 600L522.5 463Z" fill="#061b2a" stroke="#061b2a"></path><path d="M522.5 463L675 476L592.5 402Z" fill="#0284c7" stroke="#0284c7"></path><path d="M333.5 600L418 600L341.5 525Z" fill="#093049" stroke="#093049"></path><path d="M555.5 275L419 173L422 333Z" fill="#0a3b5a" stroke="#0a3b5a"></path><path d="M205 525L333.5 600L341.5 525Z" fill="#09537d" stroke="#09537d"></path><path d="M146.5 434L205 525L244 434Z" fill="#093049" stroke="#093049"></path><path d="M244 434L205 525L341.5 525Z" fill="#0284c7" stroke="#0284c7"></path><path d="M254 339L146.5 434L244 434Z" fill="#0a476b" stroke="#0a476b"></path><path d="M102.5 303L146.5 434L254 339Z" fill="#09537d" stroke="#09537d"></path><path d="M592.5 402L640 367L555.5 275Z" fill="#0284c7" stroke="#0284c7"></path><path d="M675 476L640 367L592.5 402Z" fill="#0477b4" stroke="#0477b4"></path><path d="M299.5 130L264 167L355.5 196Z" fill="#061b2a" stroke="#061b2a"></path><path d="M355.5 196L264 167L352.5 265Z" fill="#093049" stroke="#093049"></path><path d="M418 600L537.5 600L465 501Z" fill="#0a476b" stroke="#0a476b"></path><path d="M419 173L299.5 130L355.5 196Z" fill="#00101c" stroke="#00101c"></path><path d="M205 525L192 600L333.5 600Z" fill="#066ba1" stroke="#066ba1"></path><path d="M92.5 600L192 600L205 525Z" fill="#00101c" stroke="#00101c"></path><path d="M638 600L675 476L522.5 463Z" fill="#0477b4" stroke="#0477b4"></path><path d="M555.5 275L538.5 116L419 173Z" fill="#0477b4" stroke="#0477b4"></path><path d="M419 173L418 0L299.5 130Z" fill="#0a3b5a" stroke="#0a3b5a"></path><path d="M655 204L587.5 160L555.5 275Z" fill="#0a476b" stroke="#0a476b"></path><path d="M690 334L555.5 275L640 367Z" fill="#0a476b" stroke="#0a476b"></path><path d="M82.5 227L102.5 303L264 167Z" fill="#08253a" stroke="#08253a"></path><path d="M264 167L102.5 303L254 339Z" fill="#0284c7" stroke="#0284c7"></path><path d="M146.5 434L97.5 478L205 525Z" fill="#061b2a" stroke="#061b2a"></path><path d="M747.5 426L690 334L640 367Z" fill="#0284c7" stroke="#0284c7"></path><path d="M0 437L97.5 478L146.5 434Z" fill="#08253a" stroke="#08253a"></path><path d="M587.5 160L538.5 116L555.5 275Z" fill="#061b2a" stroke="#061b2a"></path><path d="M690 334L655 204L555.5 275Z" fill="#0a476b" stroke="#0a476b"></path><path d="M653 0L526.5 0L538.5 116Z" fill="#09537d" stroke="#09537d"></path><path d="M537.5 600L638 600L522.5 463Z" fill="#0a3b5a" stroke="#0a3b5a"></path><path d="M418 0L487 71L526.5 0Z" fill="#00101c" stroke="#00101c"></path><path d="M538.5 116L487 71L419 173Z" fill="#08253a" stroke="#08253a"></path><path d="M221 74L82.5 227L264 167Z" fill="#09537d" stroke="#09537d"></path><path d="M102.5 303L0 437L146.5 434Z" fill="#066ba1" stroke="#066ba1"></path><path d="M301.5 0L221 74L299.5 130Z" fill="#066ba1" stroke="#066ba1"></path><path d="M299.5 130L221 74L264 167Z" fill="#0a476b" stroke="#0a476b"></path><path d="M764.5 506L747.5 426L675 476Z" fill="#0a3b5a" stroke="#0a3b5a"></path><path d="M675 476L747.5 426L640 367Z" fill="#09537d" stroke="#09537d"></path><path d="M764.5 161L702 111L655 204Z" fill="#0a3b5a" stroke="#0a3b5a"></path><path d="M0 530L92.5 600L97.5 478Z" fill="#061b2a" stroke="#061b2a"></path><path d="M97.5 478L92.5 600L205 525Z" fill="#085f8f" stroke="#085f8f"></path><path d="M526.5 0L487 71L538.5 116Z" fill="#0a3b5a" stroke="#0a3b5a"></path><path d="M487 71L418 0L419 173Z" fill="#061b2a" stroke="#061b2a"></path><path d="M638 600L764.5 506L675 476Z" fill="#061b2a" stroke="#061b2a"></path><path d="M0 272L0 437L102.5 303Z" fill="#061b2a" stroke="#061b2a"></path><path d="M418 0L301.5 0L299.5 130Z" fill="#093049" stroke="#093049"></path><path d="M0 231L0 272L82.5 227Z" fill="#061b2a" stroke="#061b2a"></path><path d="M82.5 227L0 272L102.5 303Z" fill="#085f8f" stroke="#085f8f"></path><path d="M0 231L82.5 227L0 103Z" fill="#066ba1" stroke="#066ba1"></path><path d="M653 0L538.5 116L587.5 160Z" fill="#0477b4" stroke="#0477b4"></path><path d="M301.5 0L248 0L221 74Z" fill="#08253a" stroke="#08253a"></path><path d="M764.5 161L655 204L817.5 269Z" fill="#09537d" stroke="#09537d"></path><path d="M655 204L702 111L587.5 160Z" fill="#08253a" stroke="#08253a"></path><path d="M655 204L690 334L817.5 269Z" fill="#0a476b" stroke="#0a476b"></path><path d="M0 437L0 530L97.5 478Z" fill="#0477b4" stroke="#0477b4"></path><path d="M100.5 71L82.5 227L221 74Z" fill="#0284c7" stroke="#0284c7"></path><path d="M93.5 0L100.5 71L221 74Z" fill="#0a3b5a" stroke="#0a3b5a"></path><path d="M817.5 269L690 334L747.5 426Z" fill="#066ba1" stroke="#066ba1"></path><path d="M900 419L817.5 269L747.5 426Z" fill="#085f8f" stroke="#085f8f"></path><path d="M0 530L0 600L92.5 600Z" fill="#0a476b" stroke="#0a476b"></path><path d="M638 600L793.5 600L764.5 506Z" fill="#08253a" stroke="#08253a"></path><path d="M900 475L900 419L747.5 426Z" fill="#0477b4" stroke="#0477b4"></path><path d="M702 111L653 0L587.5 160Z" fill="#0284c7" stroke="#0284c7"></path><path d="M814.5 0L653 0L702 111Z" fill="#066ba1" stroke="#066ba1"></path><path d="M100.5 71L0 103L82.5 227Z" fill="#093049" stroke="#093049"></path><path d="M0 0L0 103L100.5 71Z" fill="#09537d" stroke="#09537d"></path><path d="M248 0L93.5 0L221 74Z" fill="#093049" stroke="#093049"></path><path d="M900 196L812.5 113L764.5 161Z" fill="#00101c" stroke="#00101c"></path><path d="M764.5 161L812.5 113L702 111Z" fill="#0a3b5a" stroke="#0a3b5a"></path><path d="M900 475L747.5 426L764.5 506Z" fill="#09537d" stroke="#09537d"></path><path d="M817.5 269L900 196L764.5 161Z" fill="#08253a" stroke="#08253a"></path><path d="M793.5 600L900 475L764.5 506Z" fill="#09537d" stroke="#09537d"></path><path d="M900 419L900 298L817.5 269Z" fill="#00101c" stroke="#00101c"></path><path d="M900 298L900 196L817.5 269Z" fill="#0477b4" stroke="#0477b4"></path><path d="M93.5 0L0 0L100.5 71Z" fill="#00101c" stroke="#00101c"></path><path d="M793.5 600L900 600L900 475Z" fill="#00101c" stroke="#00101c"></path><path d="M900 196L900 133L812.5 113Z" fill="#0284c7" stroke="#0284c7"></path><path d="M812.5 113L814.5 0L702 111Z" fill="#0477b4" stroke="#0477b4"></path><path d="M900 0L814.5 0L812.5 113Z" fill="#00101c" stroke="#00101c"></path><path d="M900 133L900 0L812.5 113Z" fill="#0477b4" stroke="#0477b4"></path></g></svg>