<?xml version="1.0" standalone="no"?>
<!DOCTYPE svg PUBLIC "-//W3C//DTD SVG 20010904//EN"
 "http://www.w3.org/TR/2001/REC-SVG-20010904/DTD/svg10.dtd">
<svg version="1.0" xmlns="http://www.w3.org/2000/svg"
 width="80.000000pt" height="80.000000pt" viewBox="0 0 80.000000 80.000000"
 preserveAspectRatio="xMidYMid meet">
<metadata>
Created by potrace 1.14, written by Peter Selinger 2001-2017
</metadata>
<g transform="translate(0.000000,80.000000) scale(0.100000,-0.100000)"
fill="#000000" stroke="none">
<path d="M186 607 c9 -28 204 -441 213 -450 4 -4 15 12 26 35 10 24 42 93 70
153 100 212 109 230 109 237 1 3 4 10 9 14 24 25 -31 36 -131 25 -7 0 -28 -33
-47 -72 l-34 -71 -33 68 c-18 38 -34 71 -35 73 -2 3 -37 5 -78 6 -69 1 -75 0
-69 -18z"/>
</g>
</svg>
